<?xml version="1.0" encoding="utf-8"?>
<!-- Generator: Adobe Illustrator 16.0.0, SVG Export Plug-In . SVG Version: 6.00 Build 0)  -->
<!DOCTYPE svg PUBLIC "-//W3C//DTD SVG 1.1//EN" "http://www.w3.org/Graphics/SVG/1.1/DTD/svg11.dtd">
<svg version="1.1" id="Layer_1" xmlns="http://www.w3.org/2000/svg" xmlns:xlink="http://www.w3.org/1999/xlink" x="0px" y="0px"
	 width="60px" height="120px" viewBox="0 0 60 120" enable-background="new 0 0 60 120" xml:space="preserve">
<g>
	<path fill="#58595B" d="M40.7,24.1h-4.4H31.9h-5.3h-5.9h-1.4v2.3h5.1c0.7,0,1.3,0.6,1.3,1.3c0,0.7-0.7,1.3-1.5,1.3h-5.1v2.3h1.4
		h5.9h0.8c1.6,0,3,0.7,4.1,1.7c0,0,0.101,0,0.101,0.1c1,1,1.6,2.4,1.6,4v5.2v10.2c0,1.1,0.5,2.2,1.2,2.9
		C34.9,56.2,36,56.6,37.1,56.6c1.101,0,2.2-0.5,2.9-1.199c0.8-0.7,1.2-1.801,1.2-2.9V24.8c0-0.2-0.101-0.4-0.2-0.5l0,0l0,0
		C41.1,24.2,40.9,24.1,40.7,24.1L40.7,24.1z M37.3,49.6c0.7,0,1.4,0.301,1.9,0.801l0,0l0,0l0,0C39.7,50.9,40,51.6,40,52.3
		s-0.3,1.4-0.8,1.9l0,0l0,0l0,0C38.7,54.7,38,55,37.3,55S35.9,54.7,35.4,54.2l0,0l0,0l0,0C34.9,53.7,34.6,53,34.6,52.3
		S34.9,50.9,35.4,50.4l0,0l0,0l0,0C35.8,49.9,36.5,49.6,37.3,49.6L37.3,49.6z M37.6,52c-0.1-0.1-0.199-0.1-0.3-0.1
		C37.2,51.9,37,52,37,52l0,0c-0.1,0.1-0.1,0.2-0.1,0.3c0,0.101,0.1,0.3,0.1,0.3l0,0c0.1,0.101,0.2,0.101,0.3,0.101
		c0.101,0,0.3,0,0.3-0.101l0,0C37.7,52.5,37.7,52.4,37.7,52.3C37.7,52.2,37.7,52.1,37.6,52L37.6,52z M31.5,19.3
		c-0.7,0-1.3-0.6-1.3-1.3s0.6-1.3,1.3-1.3h12.7c0.7,0,1.3,0.6,1.3,1.3s-0.6,1.3-1.3,1.3H31.5z M15.8,29c-0.7,0-1.3-0.6-1.3-1.3
		c0-0.7,0.6-1.3,1.3-1.3h0.7v-3.6c0-0.7,0.6-1.3,1.3-1.3h1.4V5.1c0-1.2,0.5-2.2,1.3-3l0,0c0.8-0.8,1.8-1.3,3-1.3h15
		c1.5,0,2.8,0.6,3.8,1.6l0,0c1,1,1.601,2.3,1.601,3.8v4.1c0,0.7-0.601,1.3-1.301,1.3H27.8v9.8h4h4.4H40.6c0.9,0,1.801,0.4,2.4,1l0,0
		c0.6,0.6,1,1.4,1,2.4V52.4c0,1.8-0.8,3.5-2,4.8c-1.2,1.2-2.9,2-4.8,2c-1.9,0-3.601-0.8-4.8-2c-1.2-1.2-2-2.9-2-4.8V42.2V37
		c0-0.8-0.3-1.6-0.8-2.1c0,0,0,0-0.1-0.101C29,34.3,28.4,34,27.8,33.9v6.6c0,0.7-0.6,1.3-1.3,1.3h-5.9c-0.7,0-1.3-0.6-1.3-1.3v-6.7
		h-1.4c-0.7,0-1.3-0.6-1.3-1.3V29H15.8z M25.2,21.5V10.3c0-0.7,0.6-1.3,1.3-1.3h14.9V6.3c0-0.8-0.301-1.5-0.801-2s-1.199-0.8-2-0.8
		h-15c-0.4,0-0.9,0.2-1.2,0.5c-0.3,0.3-0.5,0.7-0.5,1.2v16.4h3.3V21.5z M21.9,33.9v5.3h3.3v-5.3H21.9z"/>
</g>
<g>
	<path fill="#FFFFFF" d="M40.7,84.1h-4.4H31.9h-5.3h-5.9h-1.4V86.4h5.1c0.7,0,1.3,0.6,1.3,1.3S25,89,24.2,89h-5.1v2.3h1.4h5.9h0.8
		c1.6,0,3,0.7,4.1,1.7c0,0,0.101,0,0.101,0.1c1,1,1.6,2.4,1.6,4v5.2v10.2c0,1.1,0.5,2.2,1.2,2.9c0.7,0.8,1.8,1.199,2.899,1.199
		c1.101,0,2.2-0.5,2.9-1.199c0.8-0.7,1.2-1.801,1.2-2.9V84.8c0-0.2-0.101-0.399-0.2-0.5l0,0l0,0C41.1,84.2,40.9,84.1,40.7,84.1
		L40.7,84.1z M37.3,109.6c0.7,0,1.4,0.301,1.9,0.801l0,0l0,0l0,0c0.5,0.5,0.8,1.199,0.8,1.899s-0.3,1.4-0.8,1.9l0,0l0,0l0,0
		c-0.5,0.5-1.2,0.8-1.9,0.8s-1.399-0.3-1.899-0.8l0,0l0,0l0,0c-0.5-0.5-0.801-1.2-0.801-1.9S34.9,110.9,35.4,110.4l0,0l0,0l0,0
		C35.8,109.9,36.5,109.6,37.3,109.6L37.3,109.6z M37.6,112c-0.1-0.1-0.199-0.1-0.3-0.1c-0.1,0-0.3,0.1-0.3,0.1l0,0
		c-0.1,0.1-0.1,0.2-0.1,0.3c0,0.101,0.1,0.3,0.1,0.3l0,0c0.1,0.101,0.2,0.101,0.3,0.101c0.101,0,0.3,0,0.3-0.101l0,0
		c0.101-0.1,0.101-0.199,0.101-0.3C37.7,112.2,37.7,112.1,37.6,112L37.6,112z M31.5,79.3c-0.7,0-1.3-0.6-1.3-1.3s0.6-1.3,1.3-1.3
		h12.7c0.7,0,1.3,0.6,1.3,1.3s-0.6,1.3-1.3,1.3H31.5z M15.8,89c-0.7,0-1.3-0.6-1.3-1.3s0.6-1.3,1.3-1.3h0.7V82.8
		c0-0.7,0.6-1.3,1.3-1.3h1.4V65.1c0-1.199,0.5-2.199,1.3-3l0,0c0.8-0.8,1.8-1.3,3-1.3h15c1.5,0,2.8,0.601,3.8,1.601l0,0
		c1,1,1.601,2.3,1.601,3.8v4.1c0,0.7-0.601,1.3-1.301,1.3H27.8V81.4h4h4.4H40.6c0.9,0,1.801,0.399,2.4,1l0,0
		c0.6,0.6,1,1.399,1,2.399V112.4c0,1.8-0.8,3.5-2,4.8c-1.2,1.2-2.9,2-4.8,2c-1.9,0-3.601-0.8-4.8-2c-1.2-1.2-2-2.9-2-4.8v-10.2V97
		c0-0.8-0.3-1.6-0.8-2.1c0,0,0,0-0.1-0.101C29,94.3,28.4,94,27.8,93.9v6.6c0,0.7-0.6,1.3-1.3,1.3h-5.9c-0.7,0-1.3-0.6-1.3-1.3v-6.7
		h-1.4c-0.7,0-1.3-0.6-1.3-1.3V89H15.8z M25.2,81.5V70.3c0-0.7,0.6-1.3,1.3-1.3h14.9v-2.7c0-0.8-0.301-1.5-0.801-2s-1.199-0.8-2-0.8
		h-15c-0.4,0-0.9,0.2-1.2,0.5c-0.3,0.3-0.5,0.7-0.5,1.2V81.6h3.3V81.5z M21.9,93.9v5.3h3.3v-5.3H21.9z"/>
</g>
</svg>
