<?xml version="1.0" encoding="utf-8"?>
<!-- Generator: Adobe Illustrator 16.0.0, SVG Export Plug-In . SVG Version: 6.00 Build 0)  -->
<!DOCTYPE svg PUBLIC "-//W3C//DTD SVG 1.1//EN" "http://www.w3.org/Graphics/SVG/1.1/DTD/svg11.dtd">
<svg version="1.1" xmlns="http://www.w3.org/2000/svg" xmlns:xlink="http://www.w3.org/1999/xlink" x="0px" y="0px" width="60px"
	 height="120px" viewBox="0 0 60 120" enable-background="new 0 0 60 120" xml:space="preserve">
<g id="Layer_1" display="none">
	<g display="inline">
		<path fill="#58595B" d="M40.7,24.1h-4.4H31.9h-5.3h-5.9h-1.4v2.3h5.1c0.7,0,1.3,0.6,1.3,1.3c0,0.7-0.7,1.3-1.5,1.3h-5.1v2.3h1.4
			h5.9h0.8c1.6,0,3,0.7,4.1,1.7c0,0,0.101,0,0.101,0.1c1,1,1.6,2.4,1.6,4v5.2v10.2c0,1.1,0.5,2.2,1.2,2.9
			C34.9,56.2,36,56.6,37.1,56.6c1.101,0,2.2-0.5,2.9-1.199c0.8-0.7,1.2-1.801,1.2-2.9V24.8c0-0.2-0.101-0.4-0.2-0.5l0,0l0,0
			C41.1,24.2,40.9,24.1,40.7,24.1L40.7,24.1z M37.3,49.6c0.7,0,1.4,0.301,1.9,0.801l0,0l0,0l0,0C39.7,50.9,40,51.6,40,52.3
			s-0.3,1.4-0.8,1.9l0,0l0,0l0,0C38.7,54.7,38,55,37.3,55S35.9,54.7,35.4,54.2l0,0l0,0l0,0C34.9,53.7,34.6,53,34.6,52.3
			S34.9,50.9,35.4,50.4l0,0l0,0l0,0C35.8,49.9,36.5,49.6,37.3,49.6L37.3,49.6z M37.6,52c-0.1-0.1-0.199-0.1-0.3-0.1
			C37.2,51.9,37,52,37,52l0,0c-0.1,0.1-0.1,0.2-0.1,0.3c0,0.101,0.1,0.3,0.1,0.3l0,0c0.1,0.101,0.2,0.101,0.3,0.101
			c0.101,0,0.3,0,0.3-0.101l0,0C37.7,52.5,37.7,52.4,37.7,52.3C37.7,52.2,37.7,52.1,37.6,52L37.6,52z M31.5,19.3
			c-0.7,0-1.3-0.6-1.3-1.3s0.6-1.3,1.3-1.3h12.7c0.7,0,1.3,0.6,1.3,1.3s-0.6,1.3-1.3,1.3H31.5z M15.8,29c-0.7,0-1.3-0.6-1.3-1.3
			c0-0.7,0.6-1.3,1.3-1.3h0.7v-3.6c0-0.7,0.6-1.3,1.3-1.3h1.4V5.1c0-1.2,0.5-2.2,1.3-3l0,0c0.8-0.8,1.8-1.3,3-1.3h15
			c1.5,0,2.8,0.6,3.8,1.6l0,0c1,1,1.601,2.3,1.601,3.8v4.1c0,0.7-0.601,1.3-1.301,1.3H27.8v9.8h4h4.4H40.6c0.9,0,1.801,0.4,2.4,1
			l0,0c0.6,0.6,1,1.4,1,2.4V52.4c0,1.8-0.8,3.5-2,4.8c-1.2,1.2-2.9,2-4.8,2c-1.9,0-3.601-0.8-4.8-2c-1.2-1.2-2-2.9-2-4.8V42.2V37
			c0-0.8-0.3-1.6-0.8-2.1c0,0,0,0-0.1-0.101C29,34.3,28.4,34,27.8,33.9v6.6c0,0.7-0.6,1.3-1.3,1.3h-5.9c-0.7,0-1.3-0.6-1.3-1.3v-6.7
			h-1.4c-0.7,0-1.3-0.6-1.3-1.3V29H15.8z M25.2,21.5V10.3c0-0.7,0.6-1.3,1.3-1.3h14.9V6.3c0-0.8-0.301-1.5-0.801-2s-1.199-0.8-2-0.8
			h-15c-0.4,0-0.9,0.2-1.2,0.5c-0.3,0.3-0.5,0.7-0.5,1.2v16.4h3.3V21.5z M21.9,33.9v5.3h3.3v-5.3H21.9z"/>
	</g>
	<g display="inline">
		<path fill="#FFFFFF" d="M40.7,84.1h-4.4H31.9h-5.3h-5.9h-1.4V86.4h5.1c0.7,0,1.3,0.6,1.3,1.3S25,89,24.2,89h-5.1v2.3h1.4h5.9h0.8
			c1.6,0,3,0.7,4.1,1.7c0,0,0.101,0,0.101,0.1c1,1,1.6,2.4,1.6,4v5.2v10.2c0,1.1,0.5,2.2,1.2,2.9c0.7,0.8,1.8,1.199,2.899,1.199
			c1.101,0,2.2-0.5,2.9-1.199c0.8-0.7,1.2-1.801,1.2-2.9V84.8c0-0.2-0.101-0.399-0.2-0.5l0,0l0,0C41.1,84.2,40.9,84.1,40.7,84.1
			L40.7,84.1z M37.3,109.6c0.7,0,1.4,0.301,1.9,0.801l0,0l0,0l0,0c0.5,0.5,0.8,1.199,0.8,1.899s-0.3,1.4-0.8,1.9l0,0l0,0l0,0
			c-0.5,0.5-1.2,0.8-1.9,0.8s-1.399-0.3-1.899-0.8l0,0l0,0l0,0c-0.5-0.5-0.801-1.2-0.801-1.9S34.9,110.9,35.4,110.4l0,0l0,0l0,0
			C35.8,109.9,36.5,109.6,37.3,109.6L37.3,109.6z M37.6,112c-0.1-0.1-0.199-0.1-0.3-0.1c-0.1,0-0.3,0.1-0.3,0.1l0,0
			c-0.1,0.1-0.1,0.2-0.1,0.3c0,0.101,0.1,0.3,0.1,0.3l0,0c0.1,0.101,0.2,0.101,0.3,0.101c0.101,0,0.3,0,0.3-0.101l0,0
			c0.101-0.1,0.101-0.199,0.101-0.3C37.7,112.2,37.7,112.1,37.6,112L37.6,112z M31.5,79.3c-0.7,0-1.3-0.6-1.3-1.3s0.6-1.3,1.3-1.3
			h12.7c0.7,0,1.3,0.6,1.3,1.3s-0.6,1.3-1.3,1.3H31.5z M15.8,89c-0.7,0-1.3-0.6-1.3-1.3s0.6-1.3,1.3-1.3h0.7V82.8
			c0-0.7,0.6-1.3,1.3-1.3h1.4V65.1c0-1.199,0.5-2.199,1.3-3l0,0c0.8-0.8,1.8-1.3,3-1.3h15c1.5,0,2.8,0.601,3.8,1.601l0,0
			c1,1,1.601,2.3,1.601,3.8v4.1c0,0.7-0.601,1.3-1.301,1.3H27.8V81.4h4h4.4H40.6c0.9,0,1.801,0.399,2.4,1l0,0
			c0.6,0.6,1,1.399,1,2.399V112.4c0,1.8-0.8,3.5-2,4.8c-1.2,1.2-2.9,2-4.8,2c-1.9,0-3.601-0.8-4.8-2c-1.2-1.2-2-2.9-2-4.8v-10.2V97
			c0-0.8-0.3-1.6-0.8-2.1c0,0,0,0-0.1-0.101C29,94.3,28.4,94,27.8,93.9v6.6c0,0.7-0.6,1.3-1.3,1.3h-5.9c-0.7,0-1.3-0.6-1.3-1.3v-6.7
			h-1.4c-0.7,0-1.3-0.6-1.3-1.3V89H15.8z M25.2,81.5V70.3c0-0.7,0.6-1.3,1.3-1.3h14.9v-2.7c0-0.8-0.301-1.5-0.801-2
			s-1.199-0.8-2-0.8h-15c-0.4,0-0.9,0.2-1.2,0.5c-0.3,0.3-0.5,0.7-0.5,1.2V81.6h3.3V81.5z M21.9,93.9v5.3h3.3v-5.3H21.9z"/>
	</g>
</g>
<g id="Layer_2">
	<g>
		<path fill="#58595B" d="M22.3,27h2.4V12l-1.1-1.1C22.8,10,22.4,9.1,22.4,8c0-1,0.4-2,1.2-2.8l0,0l0,0l3.7-3.7l0.1-0.1
			c0.8-0.7,1.7-1.1,2.7-1.1c1,0,2,0.4,2.8,1.2L36.6,5.2C37.4,6,37.8,7,37.8,8s-0.399,2-1.2,2.8l0,0l-1.3,1.3V27h2.4
			c0.7,0,1.3,0.6,1.3,1.3v22.3c0,2.5-1,4.801-2.7,6.4c-1.6,1.6-3.899,2.7-6.4,2.7l0,0c-2.5,0-4.8-1-6.4-2.7
			c-1.6-1.6-2.7-3.9-2.7-6.4V28.3C20.9,27.5,21.5,27,22.3,27L22.3,27z M30,47.7c0.7,0,1.4,0.3,1.9,0.8l0,0l0,0l0,0
			c0.5,0.5,0.8,1.2,0.8,1.9c0,0.699-0.3,1.399-0.8,1.899l0,0l0,0l0,0c-0.5,0.5-1.2,0.8-1.9,0.8s-1.4-0.3-1.9-0.8l0,0l0,0l0,0
			c-0.5-0.5-0.8-1.2-0.8-1.899c0-0.7,0.3-1.4,0.8-1.9l0,0l0,0l0,0C28.6,48.1,29.3,47.7,30,47.7L30,47.7z M30.3,50.1
			c0,0-0.2-0.1-0.3-0.1s-0.3,0.1-0.3,0.1l0,0c-0.1,0.101-0.1,0.2-0.1,0.301c0,0.1,0.1,0.3,0.1,0.3l0,0c0.1,0.1,0.2,0.1,0.3,0.1
			s0.3,0,0.3-0.1l0,0c0.1-0.101,0.1-0.2,0.1-0.3C30.5,50.3,30.4,50.2,30.3,50.1L30.3,50.1z M31.3,29.6v13.8c0,0.699-0.6,1.3-1.3,1.3
			s-1.3-0.601-1.3-1.3V29.6H26h-2.4v21.1c0,1.8,0.7,3.399,1.9,4.5c1.2,1.2,2.8,1.899,4.5,1.899l0,0c1.8,0,3.4-0.699,4.5-1.899
			c1.2-1.2,1.9-2.8,1.9-4.5V29.6H34H31.3z M27.3,27H30h2.7V11.6l0,0c0-0.3,0.1-0.7,0.399-0.9L34.8,9l0,0l0,0
			c0.3-0.3,0.4-0.6,0.4-0.9c0-0.3-0.101-0.7-0.4-1l-3.7-3.7c-0.3-0.3-0.6-0.4-1-0.4c-0.3,0-0.6,0.1-0.9,0.3l0,0L25.4,7l0,0
			C25.2,7.3,25,7.7,25,8s0.1,0.7,0.4,0.9l1.5,1.5c0.2,0.2,0.4,0.6,0.4,0.9V27z"/>
	</g>
	<g>
		<path fill="#FFFFFF" d="M22.3,87h2.4V72l-1.1-1.1C22.8,70,22.4,69.1,22.4,68c0-1,0.4-2,1.2-2.8l0,0l0,0l3.7-3.7l0.1-0.1
			c0.8-0.7,1.7-1.101,2.7-1.101c1,0,2,0.4,2.8,1.2l3.699,3.7C37.4,66,37.8,67,37.8,68s-0.399,2-1.2,2.8l0,0l-1.3,1.3V87h2.4
			c0.7,0,1.3,0.6,1.3,1.3v22.3c0,2.5-1,4.801-2.7,6.4c-1.6,1.6-3.899,2.7-6.4,2.7l0,0c-2.5,0-4.8-1-6.4-2.7
			c-1.6-1.6-2.7-3.9-2.7-6.4V88.3C20.9,87.5,21.5,87,22.3,87L22.3,87z M30,107.7c0.7,0,1.4,0.3,1.9,0.8l0,0l0,0l0,0
			c0.5,0.5,0.8,1.2,0.8,1.9c0,0.699-0.3,1.399-0.8,1.899l0,0l0,0l0,0c-0.5,0.5-1.2,0.8-1.9,0.8s-1.4-0.3-1.9-0.8l0,0l0,0l0,0
			c-0.5-0.5-0.8-1.2-0.8-1.899c0-0.7,0.3-1.4,0.8-1.9l0,0l0,0l0,0C28.6,108.1,29.3,107.7,30,107.7L30,107.7z M30.3,110.1
			c0,0-0.2-0.1-0.3-0.1s-0.3,0.1-0.3,0.1l0,0c-0.1,0.101-0.1,0.2-0.1,0.301c0,0.1,0.1,0.3,0.1,0.3l0,0c0.1,0.1,0.2,0.1,0.3,0.1
			s0.3,0,0.3-0.1l0,0c0.1-0.101,0.1-0.2,0.1-0.3C30.5,110.3,30.4,110.2,30.3,110.1L30.3,110.1z M31.3,89.6V103.4
			c0,0.699-0.6,1.3-1.3,1.3s-1.3-0.601-1.3-1.3V89.6H26h-2.4V110.7c0,1.8,0.7,3.399,1.9,4.5c1.2,1.2,2.8,1.899,4.5,1.899l0,0
			c1.8,0,3.4-0.699,4.5-1.899c1.2-1.2,1.9-2.8,1.9-4.5V89.6H34H31.3z M27.3,87H30h2.7V71.6l0,0c0-0.3,0.1-0.699,0.399-0.899l1.7-1.7
			l0,0l0,0c0.3-0.3,0.4-0.6,0.4-0.9c0-0.3-0.101-0.699-0.4-1L31.1,63.4c-0.3-0.301-0.6-0.4-1-0.4c-0.3,0-0.6,0.1-0.9,0.3l0,0
			L25.4,67l0,0c-0.2,0.3-0.4,0.7-0.4,1s0.1,0.7,0.4,0.9l1.5,1.5c0.2,0.199,0.4,0.6,0.4,0.899V87z"/>
	</g>
</g>
</svg>
