<?xml version="1.0" encoding="utf-8"?>
<!-- Generator: Adobe Illustrator 16.0.0, SVG Export Plug-In . SVG Version: 6.00 Build 0)  -->
<!DOCTYPE svg PUBLIC "-//W3C//DTD SVG 1.1//EN" "http://www.w3.org/Graphics/SVG/1.1/DTD/svg11.dtd">
<svg version="1.1" id="Layer_1" xmlns="http://www.w3.org/2000/svg" xmlns:xlink="http://www.w3.org/1999/xlink" x="0px" y="0px"
	 width="60px" height="120px" viewBox="0 0 60 120" enable-background="new 0 0 60 120" xml:space="preserve">
<g id="Layer_3">
	<g>
		<path fill="#58595B" d="M11.5,59.9c-0.7,0-1.3-0.601-1.3-1.301c0-0.699,0.6-1.3,1.3-1.3h4.2v-36.4H6.4c-0.7,0-1.3-0.6-1.3-1.3V13
			c0-0.601,0.3-1,0.8-1.2l14.7-7.4v-3c0-0.699,0.6-1.3,1.3-1.3c0.7,0,1.3,0.601,1.3,1.3v2.7l25.5,7.6c0.3,0.1,0.6,0.3,0.8,0.5
			l5.2,6.6c0.399,0.6,0.399,1.4-0.2,1.8c-0.2,0.2-0.5,0.3-0.8,0.3l0,0h-5.3v12.2c0.898,0.2,1.8,0.7,2.398,1.4c0,0,0,0,0.102,0.1
			c0.898,1,1.5,2.2,1.5,3.7s-0.602,2.8-1.5,3.8l0,0l0,0l0,0c-1,1-2.301,1.5-3.801,1.5s-2.801-0.6-3.801-1.5l0,0
			c-1-1-1.5-2.3-1.5-3.8c0-0.7,0.602-1.3,1.301-1.3s1.301,0.6,1.301,1.3c0,0.7,0.3,1.4,0.8,1.9l0,0l0,0c0.5,0.5,1.2,0.8,1.899,0.8
			s1.399-0.3,1.899-0.8l0,0c0.5-0.5,0.8-1.2,0.8-1.9c0-0.7-0.3-1.399-0.699-1.8c0,0,0,0,0-0.1c-0.5-0.5-1.199-0.8-1.899-0.8
			s-1.3-0.6-1.3-1.3V20.9h-18v36.4h4.3c0.7,0,1.3,0.601,1.3,1.3c0,0.7-0.6,1.301-1.3,1.301h-5.6H17L11.5,59.9L11.5,59.9z M18.3,26.5
			l6.9-4.101v-1.5h-6.9V26.5z M25.3,25.5l-6.9,4.1v5.6l6.9-4.101V25.5z M25.3,34.1l-6.9,4.1v5.6l6.9-4.1V34.1z M25.3,42.7l-6.9,4.1
			v5.6l4.4-2.601l2.5-1.5V42.7z M25.3,51.3l-4.4,2.6l-2.5,1.5v1.9h6.9V51.3z M11.8,11.7h8.7V7.3L11.8,11.7z M23.2,6.899V11.7h16.2
			L23.2,6.899z M50.9,18.3l-3.2-4h-40v4H17h9.5H47H50.9z"/>
	</g>
	<g>
		<path fill="#FFFFFF" d="M11.5,119.9c-0.7,0-1.3-0.602-1.3-1.301s0.6-1.301,1.3-1.301h4.2v-36.4H6.4c-0.7,0-1.3-0.6-1.3-1.299V73
			c0-0.602,0.3-1,0.8-1.2L20.6,64.4v-3c0-0.699,0.6-1.3,1.3-1.3c0.7,0,1.3,0.601,1.3,1.3V64.1L48.7,71.7c0.3,0.1,0.6,0.3,0.8,0.5
			l5.2,6.6c0.399,0.601,0.399,1.4-0.2,1.8C54.3,80.8,54,80.9,53.7,80.9l0,0h-5.3V93.1c0.898,0.2,1.8,0.7,2.398,1.4
			c0,0,0,0,0.102,0.1c0.898,1,1.5,2.2,1.5,3.7s-0.602,2.8-1.5,3.8l0,0l0,0l0,0c-1,1-2.301,1.5-3.801,1.5s-2.801-0.6-3.801-1.5l0,0
			c-1-1-1.5-2.3-1.5-3.8c0-0.7,0.602-1.3,1.301-1.3s1.301,0.6,1.301,1.3s0.3,1.4,0.8,1.9l0,0l0,0c0.5,0.5,1.2,0.8,1.899,0.8
			s1.399-0.3,1.899-0.8l0,0c0.5-0.5,0.8-1.2,0.8-1.9s-0.3-1.399-0.699-1.8c0,0,0,0,0-0.1C48.6,95.9,47.9,95.6,47.2,95.6
			s-1.3-0.6-1.3-1.3V80.9h-18V117.3h4.3c0.7,0,1.3,0.601,1.3,1.3c0,0.7-0.6,1.301-1.3,1.301h-5.6H17H11.5L11.5,119.9z M18.3,86.5
			l6.9-4.102v-1.5h-6.9V86.5z M25.3,85.5l-6.9,4.1V95.2l6.9-4.101V85.5z M25.3,94.1L18.4,98.2v5.6l6.9-4.1V94.1z M25.3,102.7
			l-6.9,4.1v5.601l4.4-2.601l2.5-1.5V102.7z M25.3,111.3l-4.4,2.601l-2.5,1.5v1.899h6.9V111.3z M11.8,71.7h8.7v-4.4L11.8,71.7z
			 M23.2,66.898V71.7h16.2L23.2,66.898z M50.9,78.3l-3.2-4h-40v4H17h9.5H47H50.9z"/>
	</g>
</g>
</svg>
