<?xml version="1.0" encoding="utf-8"?>
<!-- Generator: Adobe Illustrator 16.0.0, SVG Export Plug-In . SVG Version: 6.00 Build 0)  -->
<!DOCTYPE svg PUBLIC "-//W3C//DTD SVG 1.1//EN" "http://www.w3.org/Graphics/SVG/1.1/DTD/svg11.dtd">
<svg version="1.1" id="Layer_1" xmlns="http://www.w3.org/2000/svg" xmlns:xlink="http://www.w3.org/1999/xlink" x="0px" y="0px"
	 width="60px" height="120px" viewBox="0 0 60 120" enable-background="new 0 0 60 120" xml:space="preserve">
<g id="Layer_5">
	<g>
		<path fill="#58595B" d="M30,49c0.7,0,1.4,0.3,1.9,0.8l0,0l0,0l0,0c0.5,0.5,0.8,1.2,0.8,1.9c0,0.7-0.3,1.4-0.8,1.9l0,0l0,0l0,0
			c-0.5,0.5-1.2,0.8-1.9,0.8s-1.4-0.3-1.9-0.8l0,0l0,0l0,0c-0.5-0.5-0.8-1.199-0.8-1.899c0-0.7,0.3-1.4,0.8-1.9l0,0l0,0l0,0
			C28.6,49.3,29.3,49,30,49L30,49z M22.3,36.5h2.4v-5.8c-1.1-1.3-1.8-2.9-1.8-4.7V1.6c0-0.7,0.6-1.3,1.3-1.3H36
			c0.7,0,1.3,0.6,1.3,1.3v24.3c0,1.9-0.8,3.7-2,5v5.6h2.4c0.7,0,1.3,0.6,1.3,1.3v12.8c0,2.5-1,4.801-2.7,6.4
			c-1.6,1.6-3.899,2.7-6.4,2.7l0,0c-2.5,0-4.8-1-6.4-2.7s-2.7-3.9-2.7-6.4V37.8C20.9,37.1,21.5,36.5,22.3,36.5L22.3,36.5z
			 M36.4,39.1H34h-8h-2.4v11.5c0,1.801,0.7,3.4,1.9,4.601c1.2,1.201,2.8,1.899,4.5,1.899l0,0c1.8,0,3.4-0.699,4.5-1.899
			c1.2-1.2,1.9-2.8,1.9-4.601V39.1z M32.7,36.5v-3.9c-0.7,0.3-1.4,0.4-2.2,0.5l0,0l0,0l0,0l0,0l0,0l0,0l0,0l0,0l0,0l0,0l0,0l0,0l0,0
			l0,0l0,0l0,0l0,0l0,0l0,0l0,0l0,0l0,0l0,0l0,0l0,0l0,0l0,0l0,0l0,0l0,0l0,0c-0.8-0.1-1.5-0.2-2.2-0.5v3.9H32.7z M34.7,3h-4.8
			l4.8,4.8V3z M26.7,3h-1.2v1l9.2,9.1v-2.2L26.7,3z M25.5,7.2v2.3l9.2,9.1v-2.2L25.5,7.2z M25.5,12.6v2.2l9.2,9.1v-2.2L25.5,12.6z
			 M25.5,18.1v2.2l8.3,8.3c0.3-0.4,0.601-1,0.7-1.5L25.5,18.1z M25.5,23.5v2.4c0,1.3,0.5,2.4,1.4,3.2l0,0l0,0
			c0.8,0.7,1.8,1.2,2.8,1.3l0,0l0,0l0,0l0,0l0,0l0,0l0,0l0,0l0,0l0,0l0,0l0,0l0,0l0,0l0,0l0,0l0,0l0,0l0,0l0,0l0,0l0,0l0,0l0,0l0,0
			l0,0l0,0l0,0l0,0l0,0l0,0l0,0l0,0c0.6,0,1.2-0.2,1.7-0.4L25.5,23.5z M30.3,51.4c-0.1-0.1-0.2-0.1-0.3-0.1s-0.3,0-0.3,0.101l0,0
			c-0.1,0.1-0.1,0.199-0.1,0.3c0,0.1,0.1,0.3,0.1,0.3l0,0c0.1,0.1,0.2,0.1,0.3,0.1s0.3-0.1,0.3-0.1l0,0c0.1-0.1,0.1-0.2,0.1-0.3
			C30.5,51.6,30.4,51.4,30.3,51.4L30.3,51.4z"/>
	</g>
	<g>
		<path fill="#FFFFFF" d="M30,109c0.7,0,1.4,0.3,1.9,0.8l0,0l0,0l0,0c0.5,0.5,0.8,1.2,0.8,1.9s-0.3,1.399-0.8,1.899l0,0l0,0l0,0
			c-0.5,0.5-1.2,0.801-1.9,0.801s-1.4-0.301-1.9-0.801l0,0l0,0l0,0c-0.5-0.5-0.8-1.199-0.8-1.899s0.3-1.4,0.8-1.9l0,0l0,0l0,0
			C28.6,109.3,29.3,109,30,109L30,109z M22.3,96.5h2.4v-5.8c-1.1-1.3-1.8-2.9-1.8-4.7V61.6c0-0.699,0.6-1.3,1.3-1.3H36
			c0.7,0,1.3,0.601,1.3,1.3V85.9c0,1.898-0.8,3.699-2,5v5.6h2.4c0.7,0,1.3,0.6,1.3,1.3v12.8c0,2.5-1,4.801-2.7,6.4
			c-1.6,1.6-3.899,2.7-6.4,2.7l0,0c-2.5,0-4.8-1-6.4-2.7s-2.7-3.9-2.7-6.4V97.8C20.9,97.1,21.5,96.5,22.3,96.5L22.3,96.5z
			 M36.4,99.1H34h-8h-2.4v11.5c0,1.801,0.7,3.4,1.9,4.602s2.8,1.898,4.5,1.898l0,0c1.8,0,3.4-0.699,4.5-1.898
			c1.2-1.2,1.9-2.801,1.9-4.602V99.1z M32.7,96.5v-3.9C32,92.9,31.3,93,30.5,93.1l0,0l0,0l0,0l0,0l0,0l0,0l0,0l0,0l0,0l0,0l0,0l0,0
			l0,0l0,0l0,0l0,0l0,0l0,0l0,0l0,0l0,0l0,0l0,0l0,0l0,0l0,0l0,0l0,0l0,0l0,0l0,0C29.7,93,29,92.9,28.3,92.6v3.9H32.7z M34.7,63
			h-4.8l4.8,4.8V63z M26.7,63h-1.2v1l9.2,9.1V70.9L26.7,63z M25.5,67.2v2.3l9.2,9.1V76.4L25.5,67.2z M25.5,72.6v2.2l9.2,9.101
			v-2.199L25.5,72.6z M25.5,78.1v2.2l8.3,8.3c0.3-0.398,0.601-1,0.7-1.5L25.5,78.1z M25.5,83.5v2.4c0,1.3,0.5,2.398,1.4,3.199l0,0
			l0,0c0.8,0.699,1.8,1.199,2.8,1.301l0,0l0,0l0,0l0,0l0,0l0,0l0,0l0,0l0,0l0,0l0,0l0,0l0,0l0,0l0,0l0,0l0,0l0,0l0,0l0,0l0,0l0,0
			l0,0l0,0l0,0l0,0l0,0l0,0l0,0l0,0l0,0l0,0l0,0c0.6,0,1.2-0.2,1.7-0.4L25.5,83.5z M30.3,111.4c-0.1-0.102-0.2-0.102-0.3-0.102
			s-0.3,0-0.3,0.102l0,0c-0.1,0.1-0.1,0.199-0.1,0.3c0,0.1,0.1,0.3,0.1,0.3l0,0c0.1,0.1,0.2,0.1,0.3,0.1s0.3-0.1,0.3-0.1l0,0
			c0.1-0.1,0.1-0.2,0.1-0.3C30.5,111.6,30.4,111.4,30.3,111.4L30.3,111.4z"/>
	</g>
</g>
</svg>
