<?xml version="1.0" encoding="utf-8"?>
<!-- Generator: Adobe Illustrator 16.0.0, SVG Export Plug-In . SVG Version: 6.00 Build 0)  -->
<!DOCTYPE svg PUBLIC "-//W3C//DTD SVG 1.1//EN" "http://www.w3.org/Graphics/SVG/1.1/DTD/svg11.dtd">
<svg version="1.1" id="Layer_1" xmlns="http://www.w3.org/2000/svg" xmlns:xlink="http://www.w3.org/1999/xlink" x="0px" y="0px"
	 width="60px" height="120px" viewBox="0 0 60 120" enable-background="new 0 0 60 120" xml:space="preserve">
<g id="Layer_4">
	<g>
		<path fill="#58595B" d="M13.1,56.1h4.8v-7c0-0.699,0.6-1.3,1.3-1.3c0.7,0,1.3,0.601,1.3,1.3v7h4.9V44.4c0-0.7,0.6-1.301,1.3-1.301
			c0.7,0,1.3,0.601,1.3,1.301v11.7h4.1v-7c0-0.699,0.602-1.3,1.301-1.3s1.301,0.601,1.301,1.3v7H39.6V44.4
			c0-0.7,0.602-1.301,1.301-1.301s1.301,0.601,1.301,1.301v11.7H46.9V43c0-3.6-1.5-6.9-3.899-9.3c-2.399-2.4-5.601-3.9-9.3-3.9h-7.6
			c-3.6,0-6.9,1.5-9.3,3.9C14.4,36.1,13,39.3,13,43v13.1H13.1z M30,5.7c0.7,0,1.4,0.3,1.9,0.8l0,0l0,0l0,0
			C32.1,6.8,32.3,7.1,32.5,7.4v-2c0-0.4-0.2-0.8-0.4-1c-0.3-0.3-0.6-0.4-1-0.4H29c-0.4,0-0.7,0.1-1,0.4c-0.3,0.3-0.4,0.6-0.4,1v2
			c0.1-0.3,0.3-0.6,0.6-0.9l0,0l0,0l0,0C28.6,6,29.3,5.7,30,5.7L30,5.7z M32.5,9.5c-0.1,0.3-0.3,0.6-0.6,0.9l0,0l0,0l0,0
			c-0.5,0.5-1.2,0.8-1.9,0.8s-1.4-0.3-1.9-0.8l0,0l0,0l0,0c-0.3-0.3-0.4-0.5-0.6-0.9v17.7h5V9.5z M30.4,8.1C30.3,8,30.1,8,30,8
			s-0.3,0.1-0.3,0.1l0,0c-0.1,0.1-0.1,0.2-0.1,0.3s0.1,0.3,0.1,0.3l0,0c0.1,0.1,0.2,0.1,0.3,0.1s0.3,0,0.3-0.1l0,0
			c0.1-0.1,0.1-0.2,0.1-0.3C30.5,8.3,30.4,8.2,30.4,8.1L30.4,8.1z M24.9,27.3V5.4c0-1.1,0.5-2.1,1.2-2.9c0.7-0.7,1.8-1.2,2.9-1.2
			h2.1C32.2,1.3,33.2,1.8,34,2.5c0.7,0.7,1.2,1.8,1.2,2.9v21.9c3.8,0.3,7.3,2,9.8,4.601c2.8,2.899,4.6,6.8,4.6,11.1v14.4
			c0,0.699-0.6,1.3-1.3,1.3H41h-7.5h-6.7h-7.5h-7.4c-0.7,0-1.3-0.601-1.3-1.3V43c0-4.3,1.8-8.3,4.6-11.1
			C17.6,29.3,21.1,27.6,24.9,27.3L24.9,27.3z"/>
	</g>
	<g>
		<path fill="#FFFFFF" d="M13.1,116.1h4.8v-7c0-0.699,0.6-1.3,1.3-1.3c0.7,0,1.3,0.601,1.3,1.3v7h4.9V104.4
			c0-0.7,0.6-1.301,1.3-1.301c0.7,0,1.3,0.601,1.3,1.301V116.1h4.1v-7c0-0.699,0.602-1.3,1.301-1.3s1.301,0.601,1.301,1.3v7H39.6
			V104.4c0-0.7,0.602-1.301,1.301-1.301s1.301,0.601,1.301,1.301V116.1H46.9V103c0-3.6-1.5-6.9-3.899-9.3
			c-2.399-2.4-5.601-3.9-9.3-3.9h-7.6c-3.6,0-6.9,1.5-9.3,3.9C14.4,96.1,13,99.3,13,103v13.1H13.1z M30,65.7c0.7,0,1.4,0.3,1.9,0.8
			l0,0l0,0l0,0c0.199,0.3,0.398,0.6,0.6,0.9v-2c0-0.4-0.2-0.801-0.4-1c-0.3-0.301-0.6-0.4-1-0.4H29c-0.4,0-0.7,0.1-1,0.4
			c-0.3,0.3-0.4,0.6-0.4,1v2c0.1-0.301,0.3-0.602,0.6-0.9l0,0l0,0l0,0C28.6,66,29.3,65.7,30,65.7L30,65.7z M32.5,69.5
			c-0.1,0.3-0.3,0.6-0.6,0.9l0,0l0,0l0,0c-0.5,0.5-1.2,0.8-1.9,0.8s-1.4-0.3-1.9-0.8l0,0l0,0l0,0c-0.3-0.301-0.4-0.5-0.6-0.9v17.7h5
			V69.5z M30.4,68.1C30.3,68,30.1,68,30,68s-0.3,0.1-0.3,0.1l0,0c-0.1,0.102-0.1,0.2-0.1,0.301s0.1,0.301,0.1,0.301l0,0
			c0.1,0.1,0.2,0.1,0.3,0.1s0.3,0,0.3-0.1l0,0c0.1-0.102,0.1-0.2,0.1-0.301C30.5,68.3,30.4,68.2,30.4,68.1L30.4,68.1z M24.9,87.3
			V65.4c0-1.102,0.5-2.102,1.2-2.9c0.7-0.7,1.8-1.2,2.9-1.2h2.1c1.102,0,2.102,0.5,2.9,1.2c0.7,0.7,1.2,1.8,1.2,2.9V87.3
			c3.8,0.3,7.3,2,9.8,4.601c2.8,2.899,4.6,6.801,4.6,11.101V117.4c0,0.699-0.6,1.301-1.3,1.301H41h-7.5h-6.7h-7.5h-7.4
			c-0.7,0-1.3-0.602-1.3-1.301V103c0-4.3,1.8-8.3,4.6-11.1C17.6,89.3,21.1,87.6,24.9,87.3L24.9,87.3z"/>
	</g>
</g>
</svg>
