<?xml version="1.0" encoding="utf-8"?>
<!-- Generator: Adobe Illustrator 16.0.0, SVG Export Plug-In . SVG Version: 6.00 Build 0)  -->
<!DOCTYPE svg PUBLIC "-//W3C//DTD SVG 1.1//EN" "http://www.w3.org/Graphics/SVG/1.1/DTD/svg11.dtd">
<svg version="1.1" id="Layer_1" xmlns="http://www.w3.org/2000/svg" xmlns:xlink="http://www.w3.org/1999/xlink" x="0px" y="0px"
	 width="60px" height="120px" viewBox="0 0 60 120" enable-background="new 0 0 60 120" xml:space="preserve">
<g id="Layer_6">
	<g>
		<path fill="#58595B" d="M10.8,25.542h14.7c0.7,0,1.3,0.6,1.3,1.3c0,0.7-0.6,1.3-1.3,1.3H8.8c-0.9,0-1.7,0.4-2.3,0.9
			c-0.6,0.6-0.9,1.4-0.9,2.3v4.8c0,0.9,0.4,1.7,0.9,2.301c0.6,0.6,1.4,0.899,2.3,0.899h1.8h8h10l-0.5-2.1c-0.2-0.7,0.3-1.4,1-1.5
			l1.5-0.3c0-0.4,0.102-0.801,0.102-1.2c0.1-0.4,0.199-0.8,0.3-1.2l-1.3-0.8c-0.6-0.4-0.8-1.2-0.4-1.8l2.301-3.6
			c0.399-0.6,1.199-0.8,1.801-0.4l1.3,0.8c0.3-0.3,0.6-0.5,1-0.7c0.3-0.2,0.7-0.4,1-0.7l-0.4-1.5c-0.1-0.7,0.3-1.4,1-1.6l4.2-0.9
			c0.7-0.2,1.4,0.3,1.5,1l0.3,1.5l0,0l0,0l0,0l0,0l0,0l0,0l0,0l0,0l0,0l0,0l0,0l0,0l0,0l0,0l0,0l0,0l0,0l0,0l0,0l0,0l0,0l0,0l0,0
			l0,0l0,0l0,0l0,0l0,0l0,0l0,0l0,0l0,0l0,0l0,0l0,0l0,0l0,0l0,0l0,0l0,0l0,0l0,0l0,0l0,0l0,0l0,0l0,0l0,0l0,0l0,0l0,0l0,0l0,0l0,0
			l0,0l0,0l0,0l0,0l0,0l0,0l0,0l0,0l0,0l0,0l0,0l0,0l0,0l0,0l0,0l0,0l0,0l0,0l0,0l0,0l0,0l0,0l0,0l0,0l0,0l0,0l0,0l0,0l0,0l0,0l0,0
			l0,0l0,0l0,0l0,0l0,0l0,0l0,0l0,0l0,0l0,0l0,0l0,0l0,0l0,0l0,0l0,0l0,0l0,0l0,0l0,0l0,0l0,0l0,0l0,0l0,0l0,0l0,0l0,0l0,0l0,0l0,0
			l0,0l-2.5-8.3c-0.5-1.1-1-2.3-1.6-3c-0.5-0.6-1.101-1-2-1H18.7c-0.9,0-1.5,0.4-2,1c-0.6,0.8-1.1,1.9-1.7,3L10.8,25.542z
			 M12.6,15.042c0.6-1.3,1.2-2.6,2-3.7c1-1.2,2.2-2,4-2H37c1.8,0,3.1,0.8,4,2c0.9,1.1,1.4,2.4,2,3.7l0.4,0.9
			c0.5-0.5,1.3-0.8,2.1-0.8h3c0.8,0,1.6,0.3,2.1,0.9c0.602,0.5,0.9,1.3,0.9,2.1c0,0.8-0.3,1.6-0.9,2.1c0,0,0,0-0.1,0.1
			c-0.6,0.5-1.3,0.8-2.1,0.8H45.6l0.9,2.1c0.4-0.4,1.1-0.5,1.7-0.2l3.6,2.3c0.601,0.4,0.8,1.2,0.4,1.8l-0.8,1.3
			c0.3,0.3,0.5,0.6,0.699,1c0.199,0.3,0.399,0.7,0.601,1l1.5-0.3c0.7-0.2,1.399,0.3,1.6,1l0.9,4.2c0.1,0.7-0.3,1.4-1,1.5l-1.5,0.3
			c0,0.4-0.101,0.801-0.101,1.2c-0.101,0.4-0.199,0.8-0.301,1.2l1.301,0.8c0.601,0.4,0.801,1.2,0.399,1.8l-2.3,3.601
			c-0.4,0.6-1.2,0.8-1.801,0.399l-1.301-0.8c-0.3,0.3-0.6,0.5-1,0.7c-0.3,0.2-0.699,0.4-1,0.6l0.301,1.5
			c0.199,0.7-0.301,1.4-1,1.601l-4.199,0.899c-0.7,0.101-1.4-0.3-1.5-1l-0.301-1.5c-0.399,0-0.801-0.1-1.199-0.1
			c-0.4-0.1-0.801-0.2-1.2-0.3l-0.5,1.3c-0.399,0.6-1.2,0.8-1.8,0.4l-3.6-2.3c-0.6-0.399-0.8-1.199-0.398-1.8l0.8-1.3
			c-0.3-0.3-0.5-0.6-0.7-1c-0.199-0.3-0.398-0.7-0.699-1l-1.5,0.3c-0.5,0.101-1-0.1-1.301-0.399h-7.8c0,0.1,0,0.199,0,0.3v3.6
			c0,0.8-0.3,1.5-0.9,2.101l0,0c-0.6,0.6-1.3,0.899-2.1,0.899h-8c-0.8,0-1.5-0.3-2.1-0.899l0,0c-0.5-0.5-0.9-1.301-0.9-2.101v-3.6
			c0-0.101,0-0.3,0-0.4c-1.2-0.2-2.2-0.8-3-1.6c-0.9-1-1.5-2.4-1.5-4.101v-4.8c0-1.6,0.7-3.1,1.7-4.1c0.8-0.9,2-1.5,3.2-1.7l2-4.5
			H7.1c-0.8,0-1.6-0.3-2.1-0.9l0,0c-0.6-0.6-0.9-1.3-0.9-2.1s0.4-1.5,0.9-2l0,0l0,0l0,0c0.6-0.6,1.3-0.9,2.1-0.9h3
			c0.8,0,1.5,0.3,2.1,0.8L12.6,15.042z M47.2,27.342c-0.101,0.1-0.3,0.2-0.5,0.3l0,0l0,0l0,0H46.6l0,0l0,0l0,0l0,0l0,0l0,0l0,0l0,0
			l0,0l0,0l0,0l0,0l0,0l0,0l0,0l0,0l0,0l0,0l0,0l0,0l0,0l0,0l0,0l0,0l0,0l0,0l0,0l0,0l0,0c-0.1,0-0.199,0-0.3-0.1l0,0l0,0l0,0l0,0
			l0,0l0,0l0,0l0,0l0,0l0,0l0,0l0,0l0,0l0,0l0,0l0,0l0,0l0,0l0,0l0,0l0,0l0,0l0,0l0,0l0,0l0,0l0,0l0,0l0,0l0,0l0,0l0,0l0,0l0,0l0,0
			l0,0l0,0l0,0l0,0l0,0l0,0l0,0l0,0l0,0l0,0l0,0l0,0l0,0l0,0l0,0l0,0l0,0l0,0l0,0l0,0l0,0l0,0l0,0l0,0l0,0l0,0l0,0l0,0l0,0l0,0l0,0
			l0,0l0,0l0,0l0,0l0,0l0,0l0,0l0,0l0,0l0,0l0,0l0,0l0,0l0,0l0,0l0,0l0,0l0,0l0,0l0,0l0,0l0,0l0,0l0,0l0,0l0,0l0,0l0,0l0,0l0,0l0,0
			l0,0l0,0l0,0l0,0l0,0l0,0l0,0l0,0l0,0l0,0l0,0l0,0l0,0l0,0l0,0l0,0l0,0l0,0l0,0l0,0l0,0l0,0l0,0l0,0l0,0l0,0l0,0l0,0l0,0l0,0l0,0
			l0,0l0,0l0,0l0,0l0,0l0,0l0,0l0,0l0,0l0,0l0,0l0,0l0,0l0,0l0,0l0,0l0,0l0,0l0,0l0,0l0,0l0,0l0,0l0,0l0,0l0,0l0,0l0,0l0,0l0,0l0,0
			l0,0l0,0l0,0l0,0l0,0l0,0l0,0l0,0l0,0l0,0l0,0l0,0l0,0l0,0l0,0l0,0l0,0l0,0l0,0l0,0l0,0l0,0l0,0l0,0l0,0l0,0l0,0l0,0l0,0l0,0l0,0
			l0,0l0,0l0,0l0,0l0,0l0,0l0,0l0,0l0,0l0,0l0,0l0,0l0,0l0,0l0,0l0,0l0,0l0,0l0,0l0,0l0,0l0,0l0,0l0,0l0,0l0,0l0,0l0,0l0,0l0,0l0,0
			l0,0l0,0l0,0l0,0l0,0l0,0l0,0l0,0l0,0l0,0l0,0l0,0l0,0l0,0l0,0l0,0l0,0l0,0l0,0l0,0l0,0l0,0l0,0l0,0l0,0l0,0l0,0l0,0l0,0l0,0l0,0
			l0,0l0,0l0,0h-0.1l0,0l0,0l0,0l0,0l0,0l0,0l0,0l0,0l0,0l0,0l0,0l0,0l0,0l0,0H46.1l0,0c0,0,0,0-0.1,0l0,0c-0.1,0-0.2-0.1-0.3-0.1
			l0,0l0,0l0,0l0,0l0,0l0,0l0,0l0,0l0,0l0,0l0,0l0,0l0,0l0,0l0,0l0,0l0,0l0,0l0,0l0,0l0,0l0,0l0,0l0,0c0-0.1-0.101-0.1-0.101-0.2
			l0,0l0,0l0,0l0,0l0,0l0,0l0,0l0,0l0,0l0,0l0,0l0,0l0,0l0,0l0,0l0,0l0,0l0,0v-0.1l0,0l-0.301-1.3l-6.1-0.8l0.3,1.2
			c0.101,0.6-0.101,1.3-0.7,1.5c-0.5,0.3-1.1,0.5-1.5,0.9l0,0l0,0l0,0l0,0l0,0l0,0l0,0l0,0l0,0l0,0l0,0l0,0l0,0l0,0l0,0l0,0l0,0l0,0
			l0,0l0,0l0,0l0,0l0,0l0,0l0,0l0,0l0,0l0,0l0,0l0,0l0,0l0,0l0,0l0,0l0,0l0,0l0,0l0,0l0,0l0,0l0,0l0,0l0,0l0,0l0,0l0,0l0,0l0,0l0,0
			l0,0l0,0l0,0l0,0l0,0l0,0l0,0l0,0l0,0l0,0l0,0l0,0l0,0l0,0l0,0l0,0l0,0l0,0l0,0l0,0l0,0l0,0l0,0l0,0l0,0l0,0l0,0l0,0l0,0l0,0l0,0
			l0,0l0,0l0,0l0,0l0,0l0,0l0,0l0,0l0,0l0,0l0,0l0,0l0,0l0,0l0,0l0,0l0,0l0,0l0,0l0,0l0,0l0,0l0,0l0,0l0,0l0,0l0,0l0,0l0,0l0,0l0,0
			l0,0l0,0l0,0c-0.398,0.5-1.1,0.6-1.699,0.3l-1.101-0.7l-0.899,1.4l1.101,0.7l0,0l0,0l0,0l0,0l0,0l0,0l0,0l0,0l0,0l0,0l0,0l0,0l0,0
			l0,0l0,0l0,0l0,0l0,0l0,0l0,0l0,0l0,0c0.1,0.1,0.2,0.3,0.3,0.5l0,0l0,0l0,0v0.101l0,0l0,0l0,0l0,0l0,0l0,0l0,0l0,0l0,0l0,0l0,0
			l0,0l0,0l0,0l0,0l0,0l0,0l0,0l0,0l0,0l0,0l0,0l0,0l0,0l0,0l0,0l0,0l0,0l0,0c0,0.1-0.1,0.199-0.1,0.3l0,0l0,0l0,0l0,0l0,0l0,0l0,0
			l0,0l0,0l0,0l0,0l0,0l0,0l0,0l0,0l0,0l0,0l0,0l0,0l0,0l0,0l0,0l0,0l0,0l0,0l0,0l0,0l0,0l0,0l0,0l0,0l0,0l0,0l0,0l0,0l0,0l0,0l0,0
			l0,0l0,0l0,0l0,0l0,0l0,0l0,0l0,0l0,0l0,0l0,0l0,0l0,0l0,0l0,0l0,0l0,0l0,0l0,0l0,0l0,0l0,0l0,0l0,0l0,0l0,0l0,0l0,0l0,0l0,0l0,0
			l0,0l0,0l0,0l0,0l0,0l0,0l0,0l0,0l0,0l0,0l0,0l0,0l0,0l0,0l0,0l0,0l0,0l0,0l0,0l0,0l0,0l0,0l0,0l0,0l0,0l0,0l0,0l0,0l0,0l0,0l0,0
			l0,0l0,0l0,0l0,0l0,0l0,0l0,0l0,0l0,0l0,0l0,0l0,0l0,0l0,0l0,0l0,0l0,0l0,0l0,0l0,0l0,0l0,0l0,0l0,0l0,0l0,0l0,0l0,0l0,0l0,0l0,0
			l0,0l0,0l0,0l0,0l0,0l0,0l0,0l0,0l0,0l0,0l0,0l0,0l0,0l0,0l0,0l0,0l0,0l0,0l0,0l0,0l0,0l0,0l0,0l0,0l0,0l0,0l0,0l0,0l0,0l0,0l0,0
			l0,0l0,0l0,0l0,0l0,0l0,0l0,0l0,0l0,0l0,0l0,0l0,0l0,0l0,0l0,0l0,0l0,0l0,0l0,0l0,0l0,0l0,0l0,0l0,0l0,0l0,0l0,0l0,0l0,0l0,0l0,0
			l0,0l0,0l0,0l0,0l0,0l0,0l0,0l0,0l0,0l0,0l0,0l0,0l0,0l0,0l0,0l0,0l0,0l0,0l0,0l0,0l0,0l0,0l0,0l0,0l0,0l0,0l0,0l0,0l0,0l0,0l0,0
			l0,0l0,0l0,0l0,0l0,0l0,0l0,0l0,0l0,0l0,0l0,0l0,0l0,0l0,0l0,0l0,0l0,0l0,0l0,0l0,0l0,0l0,0l0,0l0,0l0,0l0,0l0,0l0,0l0,0l0,0l0,0
			l0,0v0.1l0,0l0,0l0,0l0,0l0,0l0,0l0,0l0,0l0,0l0,0l0,0l0,0l0,0l0,0v0.101l0,0v0.1l0,0c0,0.1-0.102,0.2-0.102,0.3l0,0l0,0l0,0l0,0
			l0,0l0,0l0,0l0,0l0,0l0,0l0,0l0,0l0,0l0,0l0,0l0,0l0,0l0,0l0,0l0,0l0,0l0,0l0,0l0,0c-0.1,0.101-0.1,0.101-0.199,0.101l0,0l0,0l0,0
			l0,0l0,0l0,0l0,0l0,0l0,0l0,0l0,0l0,0l0,0l0,0l0,0l0,0l0,0l0,0h-0.101l0,0l-3.5,6.1l0.399,1.6l1.199-0.3
			c0.602-0.1,1.301,0.101,1.5,0.7c0.2,0.5,0.5,1,0.9,1.5c0.3,0.5,0.7,0.9,1.1,1.3c0.5,0.4,0.602,1.101,0.301,1.7l-0.699,1.1
			l1.398,0.9l0.7-1.1c0.3-0.5,1-0.801,1.601-0.5c0.601,0.199,1.101,0.399,1.699,0.5c0.602,0.1,1.2,0.1,1.801,0.1s1.199,0.4,1.301,1
			l0.3,1.3l1.601-0.399l-0.301-1.2c-0.1-0.601,0.102-1.3,0.7-1.5c0.5-0.3,1-0.601,1.5-0.9c0.5-0.299,0.899-0.7,1.3-1.1
			c0.4-0.5,1.102-0.601,1.7-0.3l1.101,0.699l0.899-1.399l-1.101-0.7c-0.5-0.3-0.801-1-0.5-1.6c0.199-0.601,0.399-1.101,0.5-1.7
			c0.101-0.601,0.101-1.2,0.101-1.8c0-0.601,0.399-1.2,1-1.301l1.3-0.3l-0.398-1.6l-1.2,0.3c-0.601,0.1-1.3-0.1-1.5-0.7
			c-0.3-0.5-0.601-1.1-0.9-1.5c-0.3-0.5-0.7-0.9-1.1-1.3c-0.5-0.4-0.601-1.1-0.3-1.7l0.699-1.1l-1.399-0.9l-0.5,0.7l-0.2,0.5l0,0
			l0,0l0,0l0,0l0,0l0,0l0,0l0,0l0,0l0,0l0,0l0,0l0,0l0,0l0,0l0,0L47.2,27.342L47.2,27.342L47.2,27.342L47.2,27.342L47.2,27.342
			L47.2,27.342z M48.7,17.342h-3c-0.2,0-0.4,0.1-0.5,0.2l0,0c-0.101,0.1-0.2,0.3-0.2,0.5s0.1,0.4,0.2,0.5l0,0l0,0
			c0.1,0.1,0.3,0.2,0.5,0.2h3c0.2,0,0.399-0.1,0.5-0.2l0,0c0.1-0.1,0.2-0.3,0.2-0.5s-0.102-0.4-0.2-0.5
			C49.1,17.442,48.9,17.342,48.7,17.342L48.7,17.342z M10.2,17.342h-3c-0.2,0-0.4,0.1-0.6,0.2l0,0c-0.1,0.1-0.2,0.3-0.2,0.5
			s0.1,0.4,0.2,0.5l0,0l0,0c0.1,0.1,0.3,0.2,0.6,0.2h3c0.2,0,0.4-0.1,0.5-0.2l0,0c0.1-0.1,0.2-0.3,0.2-0.5s-0.1-0.4-0.2-0.5
			C10.6,17.442,10.4,17.342,10.2,17.342L10.2,17.342z M41.4,30.842L41.4,30.842C41.4,30.842,41.5,30.842,41.4,30.842
			c1.5-0.3,3,0,4.199,0.7s2.101,2,2.399,3.5l0,0l0,0l0,0l0,0l0,0v0.1c0.3,1.5,0,2.9-0.8,4.101c-0.801,1.201-2,2.1-3.5,2.399l0,0l0,0
			l0,0l0,0l0,0h-0.1c-1.398,0.301-2.898,0-4.1-0.8c-1.2-0.7-2.1-2-2.4-3.5l0,0l0,0l0,0l0,0l0,0v-0.1c-0.3-1.4,0-2.9,0.801-4.101
			C38.6,32.142,39.9,31.243,41.4,30.842L41.4,30.842L41.4,30.842L41.4,30.842L41.4,30.842z M41.9,33.443L41.9,33.443L41.9,33.443
			L41.9,33.443c-0.801,0.199-1.4,0.699-1.801,1.3c-0.399,0.6-0.601,1.399-0.399,2.1v0.101l0,0l0,0l0,0c0.2,0.8,0.7,1.399,1.3,1.8
			c0.6,0.399,1.4,0.6,2.1,0.399H43.2l0,0l0,0l0,0c0.8-0.199,1.399-0.699,1.8-1.3c0.4-0.6,0.6-1.399,0.4-2.1v-0.101l0,0l0,0l0,0
			c-0.2-0.8-0.7-1.399-1.301-1.8c-0.601-0.399-1.399-0.6-2.101-0.399H41.9L41.9,33.443z M12.3,29.743c1.1,0,2.1,0.4,2.8,1.2
			c0,0,0.1,0,0.1,0.1c0.7,0.7,1.1,1.7,1.1,2.8c0,1.101-0.4,2.101-1.2,2.9c-0.7,0.7-1.7,1.2-2.8,1.2c-1.1,0-2.1-0.5-2.9-1.2l0,0l0,0
			c-0.7-0.7-1.2-1.7-1.2-2.9c0-1.1,0.5-2.1,1.2-2.8l0,0C10.1,30.143,11.1,29.743,12.3,29.743L12.3,29.743z M13.5,32.443
			c-0.3-0.301-0.8-0.5-1.3-0.5s-1,0.199-1.3,0.5c-0.3,0.3-0.5,0.8-0.5,1.3s0.2,1,0.5,1.3l0,0c0.3,0.3,0.8,0.5,1.3,0.5
			s0.9-0.2,1.3-0.5c0.3-0.3,0.5-0.8,0.5-1.3C14,33.342,13.9,32.842,13.5,32.443L13.5,32.443z M18.6,42.042h-8l0,0l0,0
			c-0.1,0-0.2,0-0.2,0.1l0,0c-0.1,0.101-0.1,0.101-0.1,0.2v3.601c0,0.1,0,0.199,0.1,0.199l0,0c0.1,0.101,0.1,0.101,0.2,0.101h8
			c0.1,0,0.2,0,0.2-0.101l0,0c0-0.1,0.1-0.1,0.1-0.199v-3.601c0-0.1,0-0.2-0.1-0.2l0,0C18.7,42.042,18.7,42.042,18.6,42.042
			L18.6,42.042L18.6,42.042z"/>
	</g>
	<g>
		<path fill="#FFFFFF" d="M10.8,85.543h14.7c0.7,0,1.3,0.6,1.3,1.3s-0.6,1.3-1.3,1.3H8.8c-0.9,0-1.7,0.4-2.3,0.9
			c-0.6,0.6-0.9,1.398-0.9,2.3v4.8c0,0.9,0.4,1.7,0.9,2.301c0.6,0.601,1.4,0.899,2.3,0.899h1.8h8h10l-0.5-2.1
			c-0.2-0.7,0.3-1.4,1-1.5l1.5-0.3c0-0.4,0.102-0.801,0.102-1.2c0.1-0.4,0.199-0.8,0.3-1.2l-1.3-0.8c-0.6-0.4-0.8-1.2-0.4-1.802
			l2.301-3.6c0.399-0.6,1.199-0.8,1.801-0.4l1.3,0.802c0.3-0.302,0.6-0.5,1-0.7c0.3-0.2,0.7-0.4,1-0.7l-0.4-1.5
			c-0.1-0.7,0.3-1.399,1-1.6l4.2-0.9c0.7-0.2,1.4,0.3,1.5,1l0.3,1.5l0,0l0,0l0,0l0,0l0,0l0,0l0,0l0,0l0,0l0,0l0,0l0,0l0,0l0,0l0,0
			l0,0l0,0l0,0l0,0l0,0l0,0l0,0l0,0l0,0l0,0l0,0l0,0l0,0l0,0l0,0l0,0l0,0l0,0l0,0l0,0l0,0l0,0l0,0l0,0l0,0l0,0l0,0l0,0l0,0l0,0l0,0
			l0,0l0,0l0,0l0,0l0,0l0,0l0,0l0,0l0,0l0,0l0,0l0,0l0,0l0,0l0,0l0,0l0,0l0,0l0,0l0,0l0,0l0,0l0,0l0,0l0,0l0,0l0,0l0,0l0,0l0,0l0,0
			l0,0l0,0l0,0l0,0l0,0l0,0l0,0l0,0l0,0l0,0l0,0l0,0l0,0l0,0l0,0l0,0l0,0l0,0l0,0l0,0l0,0l0,0l0,0l0,0l0,0l0,0l0,0l0,0l0,0l0,0l0,0
			l0,0l0,0l0,0l0,0l0,0l0,0l0,0l0,0l0,0l-2.5-8.3c-0.5-1.102-1-2.3-1.6-3c-0.5-0.602-1.101-1-2-1H18.7c-0.9,0-1.5,0.398-2,1
			c-0.6,0.8-1.1,1.898-1.7,3L10.8,85.543z M12.6,75.043c0.6-1.3,1.2-2.602,2-3.7c1-1.2,2.2-2,4-2H37c1.8,0,3.1,0.8,4,2
			c0.9,1.101,1.4,2.4,2,3.7l0.4,0.898c0.5-0.5,1.3-0.799,2.1-0.799h3c0.8,0,1.6,0.299,2.1,0.899c0.602,0.5,0.9,1.3,0.9,2.101
			c0,0.799-0.3,1.601-0.9,2.101c0,0,0,0-0.1,0.1c-0.6,0.5-1.3,0.8-2.1,0.8H45.6l0.9,2.102c0.4-0.4,1.1-0.5,1.7-0.2l3.6,2.3
			c0.601,0.4,0.8,1.2,0.4,1.801l-0.8,1.299c0.3,0.302,0.5,0.602,0.699,1c0.199,0.302,0.399,0.701,0.601,1l1.5-0.299
			c0.7-0.201,1.399,0.299,1.6,1l0.9,4.199c0.1,0.7-0.3,1.4-1,1.5l-1.5,0.301c0,0.399-0.101,0.801-0.101,1.199
			c-0.101,0.4-0.199,0.801-0.301,1.2l1.301,0.8c0.601,0.4,0.801,1.2,0.399,1.801l-2.3,3.601c-0.4,0.601-1.2,0.8-1.801,0.399
			l-1.301-0.801c-0.3,0.301-0.6,0.5-1,0.7c-0.3,0.2-0.699,0.399-1,0.601l0.301,1.5c0.199,0.699-0.301,1.399-1,1.601l-4.199,0.899
			c-0.7,0.101-1.4-0.301-1.5-1l-0.301-1.5c-0.399,0-0.801-0.101-1.199-0.101c-0.4-0.101-0.801-0.2-1.2-0.3l-0.5,1.3
			c-0.399,0.601-1.2,0.8-1.8,0.399l-3.602-2.301c-0.6-0.398-0.8-1.199-0.398-1.8l0.8-1.3c-0.3-0.3-0.5-0.6-0.7-1
			c-0.199-0.3-0.398-0.7-0.699-1l-1.5,0.3c-0.5,0.101-1-0.1-1.301-0.399h-7.8c0,0.101,0,0.199,0,0.301v3.6
			c0,0.801-0.3,1.5-0.9,2.102l0,0c-0.6,0.6-1.3,0.898-2.1,0.898h-8c-0.8,0-1.5-0.3-2.1-0.898l0,0c-0.5-0.5-0.9-1.301-0.9-2.102v-3.6
			c0-0.102,0-0.301,0-0.4c-1.2-0.199-2.2-0.8-3-1.6c-0.9-1-1.5-2.4-1.5-4.102v-4.8c0-1.6,0.7-3.1,1.7-4.1c0.8-0.9,2-1.5,3.2-1.7
			l2-4.5H7.1c-0.8,0-1.6-0.3-2.1-0.9l0,0c-0.6-0.6-0.9-1.3-0.9-2.1s0.4-1.5,0.9-2l0,0l0,0l0,0c0.6-0.602,1.3-0.9,2.1-0.9h3
			c0.8,0,1.5,0.301,2.1,0.801L12.6,75.043z M47.2,87.343c-0.101,0.101-0.3,0.2-0.5,0.3l0,0l0,0l0,0H46.6l0,0l0,0l0,0l0,0l0,0l0,0
			l0,0l0,0l0,0l0,0l0,0l0,0l0,0l0,0l0,0l0,0l0,0l0,0l0,0l0,0l0,0l0,0l0,0l0,0l0,0l0,0l0,0l0,0l0,0c-0.1,0-0.199,0-0.3-0.1l0,0l0,0
			l0,0l0,0l0,0l0,0l0,0l0,0l0,0l0,0l0,0l0,0l0,0l0,0l0,0l0,0l0,0l0,0l0,0l0,0l0,0l0,0l0,0l0,0l0,0l0,0l0,0l0,0l0,0l0,0l0,0l0,0l0,0
			l0,0l0,0l0,0l0,0l0,0l0,0l0,0l0,0l0,0l0,0l0,0l0,0l0,0l0,0l0,0l0,0l0,0l0,0l0,0l0,0l0,0l0,0l0,0l0,0l0,0l0,0l0,0l0,0l0,0l0,0l0,0
			l0,0l0,0l0,0l0,0l0,0l0,0l0,0l0,0l0,0l0,0l0,0l0,0l0,0l0,0l0,0l0,0l0,0l0,0l0,0l0,0l0,0l0,0l0,0l0,0l0,0l0,0l0,0l0,0l0,0l0,0l0,0
			l0,0l0,0l0,0l0,0l0,0l0,0l0,0l0,0l0,0l0,0l0,0l0,0l0,0l0,0l0,0l0,0l0,0l0,0l0,0l0,0l0,0l0,0l0,0l0,0l0,0l0,0l0,0l0,0l0,0l0,0l0,0
			l0,0l0,0l0,0l0,0l0,0l0,0l0,0l0,0l0,0l0,0l0,0l0,0l0,0l0,0l0,0l0,0l0,0l0,0l0,0l0,0l0,0l0,0l0,0l0,0l0,0l0,0l0,0l0,0l0,0l0,0l0,0
			l0,0l0,0l0,0l0,0l0,0l0,0l0,0l0,0l0,0l0,0l0,0l0,0l0,0l0,0l0,0l0,0l0,0l0,0l0,0l0,0l0,0l0,0l0,0l0,0l0,0l0,0l0,0l0,0l0,0l0,0l0,0
			l0,0l0,0l0,0l0,0l0,0l0,0l0,0l0,0l0,0l0,0l0,0l0,0l0,0l0,0l0,0l0,0l0,0l0,0l0,0l0,0l0,0l0,0l0,0l0,0l0,0l0,0l0,0l0,0l0,0l0,0l0,0
			l0,0l0,0l0,0l0,0l0,0l0,0l0,0l0,0l0,0l0,0l0,0l0,0l0,0l0,0l0,0l0,0l0,0l0,0l0,0l0,0l0,0l0,0l0,0l0,0l0,0l0,0l0,0l0,0l0,0l0,0l0,0
			l0,0l0,0l0,0l0,0l0,0h-0.1l0,0l0,0l0,0l0,0l0,0l0,0l0,0l0,0l0,0l0,0l0,0l0,0l0,0l0,0H46.1l0,0c0,0,0,0-0.1,0l0,0
			c-0.1,0-0.2-0.102-0.3-0.102l0,0l0,0l0,0l0,0l0,0l0,0l0,0l0,0l0,0l0,0l0,0l0,0l0,0l0,0l0,0l0,0l0,0l0,0l0,0l0,0l0,0l0,0l0,0l0,0
			c0-0.1-0.101-0.1-0.101-0.198l0,0l0,0l0,0l0,0l0,0l0,0l0,0l0,0l0,0l0,0l0,0l0,0l0,0l0,0l0,0l0,0l0,0l0,0v-0.101l0,0l-0.301-1.301
			l-6.1-0.8l0.3,1.2c0.101,0.6-0.101,1.3-0.7,1.5c-0.5,0.3-1.1,0.5-1.5,0.898l0,0l0,0l0,0l0,0l0,0l0,0l0,0l0,0l0,0l0,0l0,0l0,0l0,0
			l0,0l0,0l0,0l0,0l0,0l0,0l0,0l0,0l0,0l0,0l0,0l0,0l0,0l0,0l0,0l0,0l0,0l0,0l0,0l0,0l0,0l0,0l0,0l0,0l0,0l0,0l0,0l0,0l0,0l0,0l0,0
			l0,0l0,0l0,0l0,0l0,0l0,0l0,0l0,0l0,0l0,0l0,0l0,0l0,0l0,0l0,0l0,0l0,0l0,0l0,0l0,0l0,0l0,0l0,0l0,0l0,0l0,0l0,0l0,0l0,0l0,0l0,0
			l0,0l0,0l0,0l0,0l0,0l0,0l0,0l0,0l0,0l0,0l0,0l0,0l0,0l0,0l0,0l0,0l0,0l0,0l0,0l0,0l0,0l0,0l0,0l0,0l0,0l0,0l0,0l0,0l0,0l0,0l0,0
			l0,0l0,0l0,0l0,0l0,0l0,0l0,0l0,0c-0.398,0.5-1.1,0.602-1.699,0.301l-1.101-0.699L33.6,89.641l1.101,0.7l0,0l0,0l0,0l0,0l0,0l0,0
			l0,0l0,0l0,0l0,0l0,0l0,0l0,0l0,0l0,0l0,0l0,0l0,0l0,0l0,0l0,0l0,0c0.1,0.101,0.2,0.3,0.3,0.5l0,0l0,0l0,0v0.101l0,0l0,0l0,0l0,0
			l0,0l0,0l0,0l0,0l0,0l0,0l0,0l0,0l0,0l0,0l0,0l0,0l0,0l0,0l0,0l0,0l0,0l0,0l0,0l0,0l0,0l0,0l0,0l0,0l0,0
			c0,0.101-0.1,0.199-0.1,0.301l0,0l0,0l0,0l0,0l0,0l0,0l0,0l0,0l0,0l0,0l0,0l0,0l0,0l0,0l0,0l0,0l0,0l0,0l0,0l0,0l0,0l0,0l0,0l0,0
			l0,0l0,0l0,0l0,0l0,0l0,0l0,0l0,0l0,0l0,0l0,0l0,0l0,0l0,0l0,0l0,0l0,0l0,0l0,0l0,0l0,0l0,0l0,0l0,0l0,0l0,0l0,0l0,0l0,0l0,0l0,0
			l0,0l0,0l0,0l0,0l0,0l0,0l0,0l0,0l0,0l0,0l0,0l0,0l0,0l0,0l0,0l0,0l0,0l0,0l0,0l0,0l0,0l0,0l0,0l0,0l0,0l0,0l0,0l0,0l0,0l0,0l0,0
			l0,0l0,0l0,0l0,0l0,0l0,0l0,0l0,0l0,0l0,0l0,0l0,0l0,0l0,0l0,0l0,0l0,0l0,0l0,0l0,0l0,0l0,0l0,0l0,0l0,0l0,0l0,0l0,0l0,0l0,0l0,0
			l0,0l0,0l0,0l0,0l0,0l0,0l0,0l0,0l0,0l0,0l0,0l0,0l0,0l0,0l0,0l0,0l0,0l0,0l0,0l0,0l0,0l0,0l0,0l0,0l0,0l0,0l0,0l0,0l0,0l0,0l0,0
			l0,0l0,0l0,0l0,0l0,0l0,0l0,0l0,0l0,0l0,0l0,0l0,0l0,0l0,0l0,0l0,0l0,0l0,0l0,0l0,0l0,0l0,0l0,0l0,0l0,0l0,0l0,0l0,0l0,0l0,0l0,0
			l0,0l0,0l0,0l0,0l0,0l0,0l0,0l0,0l0,0l0,0l0,0l0,0l0,0l0,0l0,0l0,0l0,0l0,0l0,0l0,0l0,0l0,0l0,0l0,0l0,0l0,0l0,0l0,0l0,0l0,0l0,0
			l0,0l0,0l0,0l0,0l0,0l0,0l0,0l0,0l0,0l0,0l0,0l0,0l0,0l0,0l0,0l0,0l0,0l0,0l0,0l0,0l0,0l0,0l0,0l0,0l0,0l0,0l0,0l0,0l0,0l0,0l0,0
			l0,0l0,0l0,0l0,0l0,0l0,0l0,0l0,0l0,0l0,0l0,0l0,0l0,0l0,0l0,0v0.1l0,0l0,0l0,0l0,0l0,0l0,0l0,0l0,0l0,0l0,0l0,0l0,0l0,0l0,0
			v0.102l0,0v0.1l0,0c0,0.1-0.102,0.2-0.102,0.3l0,0l0,0l0,0l0,0l0,0l0,0l0,0l0,0l0,0l0,0l0,0l0,0l0,0l0,0l0,0l0,0l0,0l0,0l0,0l0,0
			l0,0l0,0l0,0l0,0c-0.1,0.101-0.1,0.101-0.199,0.101l0,0l0,0l0,0l0,0l0,0l0,0l0,0l0,0l0,0l0,0l0,0l0,0l0,0l0,0l0,0l0,0l0,0l0,0
			h-0.101l0,0l-3.5,6.101l0.399,1.601l1.199-0.301c0.602-0.1,1.301,0.102,1.5,0.7c0.2,0.5,0.5,1,0.9,1.5c0.3,0.5,0.7,0.899,1.1,1.3
			c0.5,0.4,0.602,1.102,0.301,1.7l-0.699,1.101l1.398,0.899l0.7-1.101c0.3-0.5,1-0.801,1.601-0.5c0.601,0.199,1.101,0.399,1.699,0.5
			c0.602,0.101,1.2,0.101,1.801,0.101s1.199,0.399,1.301,1l0.3,1.3l1.601-0.398l-0.301-1.2c-0.1-0.601,0.102-1.3,0.7-1.5
			c0.5-0.3,1-0.601,1.5-0.899c0.5-0.3,0.899-0.701,1.3-1.101c0.4-0.5,1.102-0.601,1.7-0.3l1.101,0.699l0.899-1.399l-1.101-0.7
			c-0.5-0.3-0.801-1-0.5-1.6c0.199-0.602,0.399-1.102,0.5-1.7c0.101-0.601,0.101-1.2,0.101-1.8c0-0.602,0.399-1.2,1-1.301l1.3-0.301
			l-0.398-1.6l-1.2,0.3c-0.601,0.101-1.3-0.101-1.5-0.7c-0.3-0.5-0.601-1.1-0.9-1.5c-0.3-0.5-0.7-0.9-1.1-1.3
			c-0.5-0.399-0.601-1.101-0.3-1.7l0.699-1.1l-1.399-0.9l-0.5,0.7l-0.2,0.5l0,0l0,0l0,0l0,0l0,0l0,0l0,0l0,0l0,0l0,0l0,0l0,0l0,0
			l0,0l0,0l0,0L47.2,87.343L47.2,87.343L47.2,87.343L47.2,87.343L47.2,87.343L47.2,87.343z M48.7,77.343h-3
			c-0.2,0-0.4,0.101-0.5,0.2l0,0c-0.101,0.1-0.2,0.3-0.2,0.5s0.1,0.398,0.2,0.5l0,0l0,0c0.1,0.1,0.3,0.2,0.5,0.2h3
			c0.2,0,0.399-0.101,0.5-0.2l0,0c0.1-0.102,0.2-0.3,0.2-0.5s-0.102-0.4-0.2-0.5C49.1,77.441,48.9,77.343,48.7,77.343L48.7,77.343z
			 M10.2,77.343h-3c-0.2,0-0.4,0.101-0.6,0.2l0,0c-0.1,0.1-0.2,0.3-0.2,0.5s0.1,0.398,0.2,0.5l0,0l0,0c0.1,0.1,0.3,0.2,0.6,0.2h3
			c0.2,0,0.4-0.101,0.5-0.2l0,0c0.1-0.102,0.2-0.3,0.2-0.5s-0.1-0.4-0.2-0.5C10.6,77.441,10.4,77.343,10.2,77.343L10.2,77.343z
			 M41.4,90.843L41.4,90.843C41.4,90.843,41.5,90.843,41.4,90.843c1.5-0.3,3,0,4.199,0.7s2.101,2,2.399,3.5l0,0l0,0l0,0l0,0l0,0v0.1
			c0.3,1.5,0,2.9-0.8,4.102c-0.801,1.201-2,2.1-3.5,2.398l0,0l0,0l0,0l0,0l0,0h-0.1c-1.398,0.301-2.898,0-4.1-0.8
			c-1.2-0.7-2.1-2-2.4-3.5l0,0l0,0l0,0l0,0l0,0v-0.1c-0.3-1.4,0-2.9,0.801-4.101C38.6,92.143,39.9,91.243,41.4,90.843L41.4,90.843
			L41.4,90.843L41.4,90.843L41.4,90.843z M41.9,93.443L41.9,93.443L41.9,93.443L41.9,93.443c-0.801,0.199-1.4,0.699-1.801,1.3
			c-0.399,0.6-0.601,1.399-0.399,2.1v0.101l0,0l0,0l0,0c0.2,0.801,0.7,1.399,1.3,1.801c0.6,0.398,1.4,0.6,2.1,0.398H43.2l0,0l0,0
			l0,0c0.8-0.199,1.399-0.699,1.8-1.3c0.4-0.6,0.6-1.399,0.4-2.1v-0.101l0,0l0,0l0,0c-0.2-0.801-0.7-1.399-1.301-1.801
			c-0.601-0.398-1.399-0.6-2.101-0.398H41.9L41.9,93.443z M12.3,89.743c1.1,0,2.1,0.399,2.8,1.2c0,0,0.1,0,0.1,0.1
			c0.7,0.7,1.1,1.7,1.1,2.8c0,1.101-0.4,2.101-1.2,2.9c-0.7,0.7-1.7,1.2-2.8,1.2c-1.1,0-2.1-0.5-2.9-1.2l0,0l0,0
			c-0.7-0.7-1.2-1.7-1.2-2.9c0-1.1,0.5-2.1,1.2-2.8l0,0C10.1,90.143,11.1,89.743,12.3,89.743L12.3,89.743z M13.5,92.443
			c-0.3-0.301-0.8-0.5-1.3-0.5s-1,0.199-1.3,0.5c-0.3,0.3-0.5,0.8-0.5,1.3s0.2,1,0.5,1.3l0,0c0.3,0.3,0.8,0.5,1.3,0.5
			s0.9-0.2,1.3-0.5c0.3-0.3,0.5-0.8,0.5-1.3C14,93.343,13.9,92.843,13.5,92.443L13.5,92.443z M18.6,102.043h-8l0,0l0,0
			c-0.1,0-0.2,0-0.2,0.1l0,0c-0.1,0.102-0.1,0.102-0.1,0.2v3.601c0,0.101,0,0.199,0.1,0.199l0,0c0.1,0.102,0.1,0.102,0.2,0.102h8
			c0.1,0,0.2,0,0.2-0.102l0,0c0-0.1,0.1-0.1,0.1-0.199v-3.601c0-0.1,0-0.2-0.1-0.2l0,0C18.7,102.043,18.7,102.043,18.6,102.043
			L18.6,102.043L18.6,102.043z"/>
	</g>
</g>
</svg>
